nColumns=28
nRows=60
DataType=double
version=3
OpenSimVersion=4.1
endheader
time	ground_force_1_vx	ground_force_1_vy	ground_force_1_vz	ground_force_1_px	ground_force_1_py	ground_force_1_pz	ground_force_1_mx	ground_force_1_my	ground_force_1_mz	ground_force_2_vx	ground_force_2_vy	ground_force_2_vz	ground_force_2_px	ground_force_2_py	ground_force_2_pz	ground_force_2_mx	ground_force_2_my	ground_force_2_mz	ground_force_3_vx	ground_force_3_vy	ground_force_3_vz	ground_force_3_px	ground_force_3_py	ground_force_3_pz	ground_force_3_mx	ground_force_3_my	ground_force_3_mz
5.44	0	0	0	0	0	0	0	0	0	-14.8315	452.362	-5.127	-0.241423	0.006	-1.05865	0	-6.70444	0	7.03429	460.297	-0.534066	-0.118744	0.006	-1.47262	0	4.19813	0
5.445	0	0	0	0	0	0	0	0	0	-13.7787	451.019	-6.01201	-0.242142	0.006	-1.05848	0	-6.54311	0	7.76672	457.489	-0.946054	-0.118649	0.006	-1.47233	0	4.02581	0
5.45	0	0	0	0	0	0	0	0	0	-12.4664	449.066	-6.82072	-0.242705	0.006	-1.05883	0	-6.32325	0	8.31603	454.742	-1.61744	-0.118607	0.006	-1.47187	0	3.92161	0
5.455	0	0	0	0	0	0	0	0	0	-11.4593	447.571	-7.90409	-0.243724	0.006	-1.05867	0	-6.18801	0	8.92638	451.752	-1.92262	-0.118641	0.006	-1.4714	0	3.83561	0
5.46	0	0	0	0	0	0	0	0	0	-10.2081	446.167	-8.74333	-0.24443	0.006	-1.05865	0	-6.09892	0	9.82665	448.517	-2.22779	-0.118736	0.006	-1.47098	0	3.68962	0
5.465	0	0	0	0	0	0	0	0	0	-9.14	444.427	-9.59782	-0.245454	0.006	-1.0587	0	-5.85452	0	10.6354	445.19	-2.57874	-0.118598	0.006	-1.47025	0	3.62232	0
5.47	0	0	0	0	0	0	0	0	0	-8.13293	442.047	-10.8948	-0.2464	0.006	-1.05884	0	-5.73117	0	11.5051	441.376	-2.62452	-0.118408	0.006	-1.46984	0	3.51152	0
5.475	0	0	0	0	0	0	0	0	0	-7.4005	438.995	-11.5967	-0.247338	0.006	-1.05895	0	-5.51876	0	12.4664	437.347	-2.86866	-0.118216	0.006	-1.46922	0	3.33626	0
5.48	0	0	0	0	0	0	0	0	0	-6.50024	437.378	-12.8327	-0.247909	0.006	-1.05869	0	-5.34404	0	13.2294	433.716	-3.46375	-0.118336	0.006	-1.46873	0	3.30075	0
5.485	0	0	0	0	0	0	0	0	0	-5.37109	436.035	-14.0686	-0.248891	0.006	-1.05886	0	-5.20961	0	13.8245	430.847	-4.13514	-0.118238	0.006	-1.46784	0	3.2135	0
5.49	0	0	0	0	0	0	0	0	0	-3.98254	433.685	-15.091	-0.24996	0.006	-1.05867	0	-5.00827	0	14.4958	428.314	-4.89808	-0.118201	0.006	-1.46725	0	3.09172	0
5.495	0	0	0	0	0	0	0	0	0	-2.99072	431.824	-16.6321	-0.250925	0.006	-1.05903	0	-4.69347	0	15.4571	426.575	-5.9662	-0.118226	0.006	-1.46653	0	3.02576	0
5.5	0	0	0	0	0	0	0	0	0	-1.75476	429.962	-17.7002	-0.252087	0.006	-1.05907	0	-4.56547	0	16.1133	424.866	-6.94276	-0.118103	0.006	-1.46587	0	2.94295	0
5.505	0	0	0	0	0	0	0	0	0	-0.762934	427.856	-19.2108	-0.253292	0.006	-1.05857	0	-4.38489	0	16.8457	422.546	-8.04139	-0.118077	0.006	-1.4651	0	2.84278	0
5.51	0	0	0	0	0	0	0	0	0	0.350957	425.903	-20.5078	-0.254295	0.006	-1.05886	0	-4.14901	0	17.4103	420.532	-9.10951	-0.118257	0.006	-1.46473	0	2.79524	0
5.515	0	0	0	0	0	0	0	0	0	1.5564	423.95	-21.6217	-0.255014	0.006	-1.05889	0	-3.93461	0	17.8375	418.152	-9.84193	-0.118004	0.006	-1.46394	0	2.6857	0
5.52	0	0	0	0	0	0	0	0	0	3.05176	422.089	-22.7814	-0.256341	0.006	-1.05886	0	-3.6948	0	18.4021	416.168	-11.0321	-0.118251	0.006	-1.46317	0	2.60512	0
5.525	0	0	0	0	0	0	0	0	0	4.39453	419.8	-23.8648	-0.257938	0.006	-1.05893	0	-3.51204	0	18.9972	413.818	-12.1002	-0.118323	0.006	-1.46222	0	2.52624	0
5.53	0	0	0	0	0	0	0	0	0	5.72205	417.419	-24.8413	-0.258907	0.006	-1.05912	0	-3.30194	0	19.9127	411.896	-12.8021	-0.118062	0.006	-1.46158	0	2.36048	0
5.535	0	0	0	0	0	0	0	0	0	6.86646	415.558	-25.94	-0.260344	0.006	-1.05899	0	-3.10344	0	21.0113	410.126	-13.9313	-0.118333	0.006	-1.46069	0	2.38765	0
5.54	0	0	0	0	0	0	0	0	0	8.27026	413.452	-26.886	-0.261096	0.006	-1.05903	0	-2.99083	0	21.6827	407.867	-14.4653	-0.11823	0.006	-1.46007	0	2.25352	0
5.545	0	0	0	0	0	0	0	0	0	9.24683	411.011	-27.8168	-0.262313	0.006	-1.05905	0	-2.81026	0	22.3541	405.853	-15.3961	-0.11828	0.006	-1.45968	0	2.18199	0
5.55	0	0	0	0	0	0	0	0	0	10.2844	408.813	-28.3051	-0.263038	0.006	-1.05905	0	-2.61336	0	23.1323	403.931	-16.2048	-0.118318	0.006	-1.45872	0	2.14147	0
5.555	0	0	0	0	0	0	0	0	0	11.0016	406.708	-29.0985	-0.264399	0.006	-1.0588	0	-2.29854	0	24.0478	402.1	-16.7084	-0.11825	0.006	-1.4579	0	2.0912	0
5.56	0	0	0	0	0	0	0	0	0	11.8561	404.877	-29.5868	-0.265322	0.006	-1.05898	0	-2.19219	0	24.5819	400.818	-17.0136	-0.118179	0.006	-1.4574	0	2.04732	0
5.565	0	0	0	0	0	0	0	0	0	12.8174	402.832	-30.1666	-0.266593	0.006	-1.05895	0	-1.99415	0	24.9786	399.567	-17.5171	-0.118268	0.006	-1.45677	0	2.00559	0
5.57	0	0	0	0	0	0	0	0	0	13.855	400.543	-30.365	-0.267679	0.006	-1.05935	0	-1.76342	0	25.8331	397.278	-17.9138	-0.118322	0.006	-1.45615	0	1.94902	0
5.575	0	0	0	0	0	0	0	0	0	14.9536	398.437	-30.4566	-0.268123	0.006	-1.05918	0	-1.59056	0	26.474	395.081	-18.5394	-0.118337	0.006	-1.45549	0	1.83533	0
5.58	0	0	0	0	0	0	0	0	0	15.564	396.179	-30.4565	-0.269508	0.006	-1.05957	0	-1.4471	0	27.2675	393.585	-19.3787	-0.118232	0.006	-1.45477	0	1.80137	0
5.585	0	0	0	0	0	0	0	0	0	16.449	394.501	-30.7922	-0.270591	0.006	-1.0599	0	-1.2512	0	27.9388	392.303	-19.9585	-0.118172	0.006	-1.45449	0	1.72407	0
5.59	0	0	0	0	0	0	0	0	0	17.1509	393.066	-30.5634	-0.270942	0.006	-1.05987	0	-1.00674	0	28.9307	391.632	-20.1416	-0.118235	0.006	-1.45383	0	1.6887	0
5.595	0	0	0	0	0	0	0	0	0	18.0511	390.015	-30.5786	-0.272012	0.006	-1.06006	0	-0.960261	0	29.5563	390.259	-20.6299	-0.118235	0.006	-1.4533	0	1.64561	0
5.6	0	0	0	0	0	0	0	0	0	18.5242	387.299	-30.5481	-0.273182	0.006	-1.0603	0	-0.826275	0	30.3345	389.252	-20.874	-0.118372	0.006	-1.4528	0	1.47234	0
5.605	0	0	0	0	0	0	0	0	0	19.2566	384.918	-30.2734	-0.274302	0.006	-1.06064	0	-0.750501	0	30.9753	387.177	-21.1639	-0.118208	0.006	-1.45203	0	1.40331	0
5.61	0	0	0	0	0	0	0	0	0	19.928	382.385	-29.953	-0.274748	0.006	-1.06057	0	-0.577887	0	31.8146	386.536	-21.4691	-0.118518	0.006	-1.45207	0	1.32398	0
5.615	0	0	0	0	0	0	0	0	0	20.2179	379.7	-29.4342	-0.275561	0.006	-1.06072	0	-0.399649	0	32.2723	384.491	-21.7133	-0.118458	0.006	-1.45153	0	1.2752	0
5.62	0	0	0	0	0	0	0	0	0	20.6909	376.648	-29.0832	-0.275837	0.006	-1.06119	0	-0.342763	0	32.608	382.721	-21.5454	-0.11857	0.006	-1.45132	0	1.19555	0
5.625	0	0	0	0	0	0	0	0	0	20.8282	373.688	-29.0832	-0.276693	0.006	-1.06116	0	-0.313362	0	32.9285	379.669	-20.8893	-0.118569	0.006	-1.45122	0	1.13376	0
5.63	0	0	0	0	0	0	0	0	0	21.2707	370.514	-28.9154	-0.277158	0.006	-1.06149	0	-0.240826	0	33.0658	377.014	-20.2942	-0.118561	0.006	-1.45108	0	1.05116	0
5.635	0	0	0	0	0	0	0	0	0	21.1182	368.805	-28.8391	-0.277742	0.006	-1.06134	0	-0.162416	0	33.1421	374.573	-19.8212	-0.11868	0.006	-1.45062	0	1.01086	0
5.64	0	0	0	0	0	0	0	0	0	21.3928	366.15	-28.3966	-0.27815	0.006	-1.06144	0	-0.0965838	0	33.5541	372.101	-19.9738	-0.118675	0.006	-1.45046	0	1.01291	0
5.645	0	0	0	0	0	0	0	0	0	21.4233	363.617	-28.2898	-0.278619	0.006	-1.06195	0	-0.0211214	0	33.9508	369.659	-20.0501	-0.118726	0.006	-1.45018	0	0.928745	0
5.65	0	0	0	0	0	0	0	0	0	21.3318	361.084	-27.8778	-0.278221	0.006	-1.06176	0	0.109868	0	34.2865	367.706	-20.1874	-0.11867	0.006	-1.45004	0	0.917206	0
5.655	0	0	0	0	0	0	0	0	0	21.347	358.398	-27.8015	-0.278385	0.006	-1.06209	0	0.156612	0	34.3323	365.173	-19.6991	-0.11859	0.006	-1.44985	0	0.869469	0
5.66	0	0	0	0	0	0	0	0	0	21.2402	355.957	-27.7557	-0.278462	0.006	-1.06204	0	0.217578	0	34.6985	363.22	-19.1498	-0.11855	0.006	-1.44949	0	0.829281	0
5.665	0	0	0	0	0	0	0	0	0	20.7977	353.699	-27.771	-0.278232	0.006	-1.06226	0	0.220704	0	34.79	361.511	-18.9514	-0.118585	0.006	-1.44942	0	0.787548	0
5.67	0	0	0	0	0	0	0	0	0	20.0043	351.349	-27.8778	-0.277714	0.006	-1.0621	0	0.275737	0	35.0647	359.985	-18.9209	-0.11871	0.006	-1.4489	0	0.806056	0
5.675	0	0	0	0	0	0	0	0	0	19.3481	348.602	-27.893	-0.27751	0.006	-1.06216	0	0.288622	0	35.0494	357.971	-18.7836	-0.118816	0.006	-1.44904	0	0.713993	0
5.68	0	0	0	0	0	0	0	0	0	18.0511	345.612	-27.9998	-0.27733	0.006	-1.06215	0	0.357292	0	35.2478	356.232	-18.5547	-0.118724	0.006	-1.44893	0	0.669857	0
5.685	0	0	0	0	0	0	0	0	0	16.983	341.98	-27.9083	-0.277325	0.006	-1.06209	0	0.448281	0	35.3546	354.126	-17.746	-0.118826	0.006	-1.44913	0	0.578201	0
5.69	0	0	0	0	0	0	0	0	0	16.9678	338.898	-28.1372	-0.277867	0.006	-1.06229	0	0.400692	0	35.7513	351.196	-17.1204	-0.118836	0.006	-1.44931	0	0.587079	0
5.695	0	0	0	0	0	0	0	0	0	17.1356	337.067	-28.3355	-0.278043	0.006	-1.0617	0	0.527925	0	35.8734	348.968	-16.6168	-0.118894	0.006	-1.44937	0	0.581627	0
5.7	0	0	0	0	0	0	0	0	0	17.2272	334.381	-28.8696	-0.277765	0.006	-1.06155	0	0.447945	0	35.7208	346.68	-16.1743	-0.119311	0.006	-1.4497	0	0.54189	0
5.705	0	0	0	0	0	0	0	0	0	16.8762	332.031	-29.4494	-0.278363	0.006	-1.06115	0	0.46197	0	35.9039	343.719	-15.1062	-0.119146	0.006	-1.45002	0	0.515918	0
5.71	0	0	0	0	0	0	0	0	0	16.9678	329.376	-30.0293	-0.278951	0.006	-1.0614	0	0.435038	0	36.1939	340.851	-13.6414	-0.119194	0.006	-1.45053	0	0.475387	0
5.715	0	0	0	0	0	0	0	0	0	16.8304	328.064	-30.6549	-0.279395	0.006	-1.06127	0	0.43049	0	36.0718	337.982	-11.6577	-0.119251	0.006	-1.45139	0	0.510642	0
5.72	0	0	0	0	0	0	0	0	0	16.7084	326.447	-31.1126	-0.278696	0.006	-1.06078	0	0.443604	0	36.3007	334.229	-9.42994	-0.119308	0.006	-1.452	0	0.502574	0
5.725	0	0	0	0	0	0	0	0	0	16.2353	323.639	-31.4483	-0.279516	0.006	-1.06085	0	0.383579	0	36.6821	331.116	-7.43104	-0.119354	0.006	-1.45253	0	0.54177	0
5.73	0	0	0	0	0	0	0	0	0	15.564	321.716	-31.9213	-0.278936	0.006	-1.0607	0	0.426049	0	37.0178	327.911	-6.073	-0.119118	0.006	-1.45334	0	0.593769	0
5.735	0	0	0	0	0	0	0	0	0	15.1672	319.916	-32.2723	-0.278486	0.006	-1.06069	0	0.407735	0	37.2772	325.5	-4.28772	-0.119639	0.006	-1.45386	0	0.591389	0
